<svg xmlns="http://www.w3.org/2000/svg" width="1605" height="1063" viewBox="0 0 1605 1063" fill="none"><rect x="165" width="1440" height="997" fill="#11214B"></rect><circle cx="1440" cy="890" r="25" stroke="#EBEEF3" stroke-width="4"></circle><circle cx="175" cy="747" r="175" fill="#233B6D"></circle><circle cx="950.5" cy="414.5" r="71" stroke="#EBEEF3" stroke-width="3"></circle><circle cx="935.5" cy="345.5" r="22.5" fill="#233B6D"></circle><circle cx="543" cy="179" r="60" fill="#233B6D"></circle><path d="M1529 421C1529 428.147 1522.99 434 1515.5 434C1508.01 434 1502 428.147 1502 421C1502 413.853 1508.01 408 1515.5 408C1522.99 408 1529 413.853 1529 421Z" fill="#233B6D" stroke="#233B6D" stroke-width="2"></path><circle cx="456" cy="245" r="25" stroke="#233B6D" stroke-width="4"></circle><circle cx="1270" cy="832" r="125" fill="#233B6D"></circle><circle cx="1495.5" cy="338.5" r="42" stroke="#EBEEF3" stroke-width="3"></circle><path d="M1274 382C1274 389.147 1267.99 395 1260.5 395C1253.01 395 1247 389.147 1247 382C1247 374.853 1253.01 369 1260.5 369C1267.99 369 1274 374.853 1274 382Z" stroke="#233B6D" stroke-width="2"></path><circle cx="347" cy="832" r="83.5" stroke="#EBEEF3" stroke-width="3"></circle><ellipse cx="950.5" cy="723" rx="14.5" ry="14" fill="#233B6D"></ellipse><circle cx="1501" cy="765" r="6" stroke="#EBEEF3" stroke-width="2"></circle><mask id="path-15-inside-1" fill="white"><path d="M810 1023C810 1017.75 808.965 1012.55 806.955 1007.69C804.945 1002.84 801.999 998.43 798.284 994.716C794.57 991.001 790.16 988.055 785.307 986.045C780.454 984.035 775.253 983 770 983C764.747 983 759.546 984.035 754.693 986.045C749.84 988.055 745.43 991.001 741.716 994.716C738.001 998.43 735.055 1002.84 733.045 1007.69C731.035 1012.55 730 1017.75 730 1023L770 1023H810Z"></path></mask><path d="M810 1023C810 1017.75 808.965 1012.55 806.955 1007.69C804.945 1002.84 801.999 998.43 798.284 994.716C794.57 991.001 790.16 988.055 785.307 986.045C780.454 984.035 775.253 983 770 983C764.747 983 759.546 984.035 754.693 986.045C749.84 988.055 745.43 991.001 741.716 994.716C738.001 998.43 735.055 1002.84 733.045 1007.69C731.035 1012.55 730 1017.75 730 1023L770 1023H810Z" stroke="#233B6D" stroke-width="4" mask="url(#path-15-inside-1)"></path><circle cx="1460" cy="126" r="6" stroke="#EBEEF3" stroke-width="2"></circle><circle cx="1239" cy="407" r="6" stroke="#EBEEF3" stroke-width="2"></circle><circle cx="931" cy="758" r="6" stroke="#EBEEF3" stroke-width="2"></circle></svg>